<svg width="48" height="42" viewBox="0 0 48 42" fill="none" xmlns="http://www.w3.org/2000/svg">
<g clip-path="url(#clip0_4_3623)">
<path d="M10.5571 36.4141C11.0488 36.6563 11.2137 36.9945 11.1081 37.545C11.0196 38.1094 11.0144 38.6838 11.0926 39.2497C11.21 40.3149 11.79 41.5447 12.7855 41.7276C13.456 41.856 14.1371 41.9231 14.8202 41.9282C15.7382 41.9366 16.6497 41.7757 17.5075 41.4537C18.5686 41.0513 19.0685 40.1381 18.843 39.0109C18.791 38.7476 18.7348 38.4849 18.6758 38.2066L18.6411 38.0418C19.0147 38.076 19.3817 38.1152 19.7386 38.153C20.6821 38.2694 21.6311 38.3377 22.5818 38.3578C23.5373 38.356 24.4598 38.2725 25.4416 38.1774C25.7898 38.1432 26.1481 38.1091 26.5068 38.0794C26.4998 38.1308 26.4931 38.181 26.4863 38.2301C26.4492 38.4569 26.4291 38.686 26.426 38.9158C26.44 40.0044 26.7314 40.8451 27.2683 41.3445C27.6958 41.7426 28.2732 41.9297 28.981 41.8995C30.5157 41.835 31.7807 41.7301 32.9617 41.5695C33.8147 41.4537 34.3145 40.884 34.3318 40.0066C34.3483 39.2042 34.3168 38.3881 34.2864 37.5993C34.2769 37.3529 34.2673 37.1066 34.2594 36.8604C34.2507 36.5996 34.2285 36.3417 34.2073 36.0921C34.2014 36.0248 34.1955 35.958 34.19 35.8921C34.6052 35.7147 35.0153 35.5409 35.4205 35.3706C36.4103 34.9528 37.3456 34.5582 38.2844 34.1317C40.5757 33.0913 42.2213 31.5252 43.1767 29.4771C43.2218 29.3804 43.278 29.286 43.3373 29.1868C43.3463 29.172 43.3546 29.1568 43.364 29.1417C43.4424 29.152 43.5194 29.1624 43.5952 29.1733C43.8501 29.2085 44.091 29.2416 44.3382 29.2555C44.7404 29.278 45.1377 29.2698 45.5073 29.257C46.7842 29.2148 47.2843 28.7487 47.4178 27.4764C47.6656 25.1186 47.3137 22.7735 46.9726 20.5055L46.9565 20.3989C46.7768 19.2019 46.2782 18.7862 44.9813 18.7512C44.429 18.7367 43.8699 18.7404 43.3288 18.744C43.1267 18.7454 42.9249 18.7467 42.7235 18.7471C41.3942 14.9585 39.214 12.7416 35.8808 11.7926C36.1458 11.2397 36.3744 10.6705 36.5648 10.0886C36.8844 9.17754 37.1864 8.31669 37.7925 7.58152C38.168 7.12567 38.2162 6.65413 37.9215 6.31983C37.788 6.19464 37.6291 6.09858 37.4554 6.03794C37.2814 5.97731 37.0965 5.95344 36.9129 5.96796C33.6707 6.26486 31.3457 7.46355 29.8068 9.63252C29.7321 9.73414 29.6523 9.83199 29.5677 9.92567L29.5538 9.94138C29.3795 9.92874 29.2116 9.91372 29.0483 9.89921C28.6558 9.8562 28.2614 9.83523 27.8667 9.83639C26.7505 9.86064 25.5316 9.91152 24.1401 9.99227C19.2521 10.2764 15.0757 11.5036 11.3722 13.7443C8.00312 15.7824 6.00293 18.5106 5.25683 22.0851C5.17185 22.4921 5.01071 22.7338 4.7445 22.8431C4.72871 22.6734 4.71659 22.5027 4.70445 22.3359C4.68412 21.7924 4.60747 21.2526 4.47568 20.7247C4.36166 20.313 4.1008 19.9555 3.74088 19.7179C3.38094 19.4802 2.94609 19.3781 2.51593 19.4304C2.10581 19.4925 1.72906 19.6894 1.44693 19.989C1.1648 20.2885 0.993824 20.6731 0.961775 21.0805C0.93853 21.5846 0.968008 22.0898 1.04972 22.588C1.07695 22.8006 1.10521 23.0207 1.12411 23.2344C1.1275 23.274 1.14452 23.3111 1.17234 23.3399C0.873171 23.6874 0.534646 24.1473 0.956779 24.7002C1.35845 25.2262 1.95592 25.122 2.43633 25.0392L2.57504 25.0138C2.76753 24.9685 2.96514 24.9477 3.16299 24.952C3.54454 24.9781 3.932 25.0276 4.34234 25.0799C4.47068 25.0969 4.60247 25.1128 4.73862 25.1297C4.73862 25.1365 4.73773 25.1434 4.73738 25.1502C4.73027 25.2817 4.72318 25.4154 4.70983 25.5487C4.54415 26.9711 4.74018 28.4117 5.28024 29.741C5.37771 29.9771 5.46649 30.2244 5.55217 30.4634C5.68519 30.8579 5.84157 31.2446 6.02047 31.6213C6.3246 32.2637 6.70072 32.8707 7.14184 33.431C8.02669 34.4956 9.09125 35.6914 10.5571 36.4141ZM35.1099 8.25678C34.9056 8.65887 34.7278 9.07353 34.5779 9.49818C34.2923 10.3728 34.0372 11.3101 33.8201 12.2847C33.6716 12.9505 33.9434 13.3494 34.6506 13.5035C36.8587 13.9845 38.5551 15.2791 39.8362 17.4603C40.2375 18.1862 40.5577 18.953 40.7917 19.7469C41.0823 20.6559 41.3987 21.0672 42.5041 21.102C43.0071 21.118 43.5149 21.1143 44.0525 21.1104C44.2546 21.109 44.4623 21.1075 44.6783 21.1069L45.1035 26.8005C44.9023 26.8452 44.7083 26.8859 44.5198 26.9265C43.98 27.0411 43.4703 27.1485 42.9802 27.3045C42.6274 27.4162 42.1824 27.656 41.9948 27.9944C40.3426 30.9583 37.4982 32.3409 34.9338 33.3025L34.6005 33.4273C33.9527 33.6697 33.2824 33.9204 32.6305 34.1845C31.9919 34.4428 31.9513 35.1124 31.9317 35.4342C31.8825 36.244 31.8624 37.0674 31.8426 37.8639C31.8353 38.1606 31.828 38.4574 31.8192 38.7539C31.8159 38.8673 31.8164 38.9808 31.8173 39.1273V39.2357L29.2298 39.5017C29.1967 39.2902 29.1605 39.0835 29.1258 38.8799C29.0247 38.358 28.9548 37.8306 28.9164 37.3007C28.8802 36.5892 28.648 36.0775 28.2262 35.7795C27.7753 35.4612 27.1212 35.4093 26.3327 35.629C24.7518 36.069 23.1986 36.0791 21.743 36.0523C21.3068 36.0443 20.86 35.993 20.4277 35.9434C20.1141 35.9072 19.7896 35.8701 19.4675 35.8488C19.0699 35.8189 18.6701 35.8353 18.2766 35.8979C17.288 36.0651 16.7812 36.5694 16.58 37.5834C16.5155 37.9078 16.4791 38.2392 16.447 38.5501C16.4269 38.7475 16.4165 38.9445 16.4043 39.1726C16.401 39.2359 16.3975 39.3018 16.3936 39.371L13.6277 39.5588C13.6023 39.3042 13.5739 39.0546 13.546 38.8086C13.4586 38.1547 13.4088 37.4965 13.3967 36.8373C13.3979 36.2146 13.3046 35.5638 12.6178 35.0255L12.2467 34.7353C11.3949 34.0962 10.581 33.4097 9.80908 32.679C8.86789 31.7831 8.13438 30.6978 7.65876 29.4972C7.18314 28.2965 6.97663 27.0088 7.05339 25.7223C7.15086 23.498 7.60041 21.5875 8.42786 19.8816C9.0895 18.5173 10.1502 17.3304 11.671 16.2532C15.2947 13.6848 19.5941 12.3482 24.8146 12.1665C25.4454 12.1447 26.0879 12.1341 26.7095 12.124C27.653 12.1086 28.6284 12.0928 29.5874 12.0366C30.0408 12.01 30.473 11.5073 30.5946 11.3528C31.7789 9.85705 32.8717 8.94364 34.138 8.39183C34.4304 8.26447 34.7327 8.15026 35.0828 8.01795L35.2535 7.95338C35.2049 8.05821 35.1565 8.15896 35.1099 8.25678Z" fill="black"/>
<path d="M19.7963 0.058508C18.1648 0.198507 16.7908 1.1471 15.9267 2.72928C15.3435 3.79772 15.1713 4.83078 15.4149 5.79986C15.9028 7.73988 17.473 8.72777 20.0824 8.73647C20.1488 8.73989 20.2147 8.74139 20.2805 8.74139C21.8571 8.74139 23.2739 7.77539 24.0996 6.12356C24.8442 4.63376 24.8759 3.40637 24.1964 2.37105C23.118 0.728617 21.5569 -0.0920773 19.7963 0.058508ZM21.8013 5.02832C21.2843 5.9699 20.5637 6.50945 19.8753 6.45687H19.8637C18.8883 6.45226 18.1715 6.1922 17.7904 5.70561C17.4646 5.2892 17.3884 4.70395 17.5702 4.01351C17.6614 3.63669 17.8118 3.27617 18.0162 2.94507C18.1669 2.70548 18.3771 2.50764 18.6272 2.37021C18.8771 2.23281 19.1585 2.16035 19.4447 2.15969C19.701 2.16073 19.9541 2.21587 20.1867 2.32137C20.6312 2.51027 21.0493 2.75426 21.431 3.04735C22.1988 3.66011 22.2881 4.14154 21.8013 5.02832Z" fill="black"/>
<path d="M23.4357 13.5918C20.2619 13.8353 17.5178 14.5634 15.0441 15.8181C14.5925 16.0606 14.1688 16.3503 13.7803 16.6822C13.3105 17.0682 13.2033 17.6002 13.5134 18.0059C13.5807 18.0995 13.6703 18.1751 13.7743 18.2267C13.8784 18.2781 13.9936 18.3035 14.11 18.3009C14.3462 18.2903 14.5769 18.2268 14.7845 18.1153C16.7514 17.1575 19.0042 16.5052 21.6716 16.121C22.456 16.008 23.2512 15.8671 24.0346 15.7025C24.6416 15.5755 24.9836 15.2007 24.9999 14.6479V14.6425C25.0035 14.5056 24.9779 14.3696 24.9243 14.2433C24.8709 14.1169 24.7907 14.0031 24.6894 13.9094C24.4149 13.6597 23.9813 13.5486 23.4357 13.5918Z" fill="black"/>
<path d="M32.3509 17.9545C32.3357 18.1811 32.3671 18.4083 32.443 18.6226C32.519 18.837 32.6381 19.0342 32.7932 19.2024C32.9484 19.3704 33.1362 19.506 33.3457 19.601C33.5552 19.696 33.7821 19.7486 34.0126 19.7554C34.0388 19.7566 34.0646 19.7571 34.0908 19.7571C34.5395 19.7559 34.9701 19.5826 35.2909 19.2739C35.4659 19.1085 35.605 18.9099 35.7001 18.6902C35.7949 18.4705 35.8437 18.234 35.8433 17.9953C35.8385 17.0663 35.147 16.3274 34.2693 16.3129C33.1645 16.3018 32.3906 16.9543 32.3509 17.9545Z" fill="black"/>
</g>
<defs>
<clipPath id="clip0_4_3623">
<rect width="47" height="42" fill="white" transform="translate(0.641235)"/>
</clipPath>
</defs>
</svg>
