<svg width="32" height="43" viewBox="0 0 32 43" fill="none" xmlns="http://www.w3.org/2000/svg">
<g clip-path="url(#clip0_4_3651)">
<path d="M27.497 25.1678C29.5517 22.7021 30.872 19.7392 31.3158 16.5989C32.1886 10.3551 29.5571 5.41297 23.9063 2.68297C22.1617 1.84006 20.2617 1.3869 18.4655 0.995239C13.8646 -0.00798064 9.65202 0.769415 5.94383 3.30496C2.92626 5.36859 1.26831 7.88922 0.875346 11.0112C0.579087 13.3895 0.739608 15.8004 1.3488 18.122C2.57823 22.8614 4.77794 26.5862 8.07345 29.509C8.15553 29.5819 8.23871 29.6544 8.32202 29.7268C8.68891 30.0271 9.02697 30.3591 9.33213 30.7184C9.61148 31.0708 9.9333 31.5257 9.94105 31.9175C9.9694 33.3878 9.88102 34.837 9.78133 36.1829C9.7195 37.0162 9.62051 37.8627 9.5247 38.6815C9.46604 39.1818 9.40755 39.6822 9.35664 40.184C9.24321 41.298 9.63515 41.8553 10.7094 42.1076C11.3467 42.2611 12.0005 42.3407 12.6571 42.3449H12.7175C14.8931 42.327 17.1033 42.2787 19.2421 42.2319L20.6688 42.201C22.0535 42.1716 22.6115 41.6828 22.7276 40.3976C22.9309 38.1461 23.0285 36.4175 23.0434 34.7921L23.0455 34.6183C23.0575 33.654 23.0709 32.5663 22.204 31.6363L23.8172 29.6647C25.047 28.1611 26.2736 26.6622 27.497 25.1678ZM20.6941 31.3619L18.2784 31.1849C18.2751 31.1659 18.2745 31.1466 18.2766 31.1275C18.6326 29.8004 18.9923 28.4743 19.3555 27.1495C20.1634 24.1857 20.9987 21.1211 21.7571 18.091C22.3424 15.7532 22.3611 13.6815 21.8136 11.7578C21.5443 10.8113 21.0328 10.1122 20.3341 9.73606C19.9975 9.56507 19.6288 9.46195 19.2502 9.43295C18.8715 9.40396 18.4905 9.44966 18.1305 9.56735C17.8436 9.65992 17.5672 9.78079 17.3057 9.92798L17.1982 9.98357C17.0291 10.0708 16.8722 10.1714 16.7061 10.2768L16.6147 10.3348C16.5691 10.2791 16.5245 10.2236 16.4801 10.1685C16.3177 9.95911 16.1444 9.75797 15.9607 9.56584C14.9844 8.57714 13.5795 8.48086 12.4641 9.32684C11.7091 9.9195 11.1369 10.7021 10.8101 11.5889C9.65993 14.4495 9.57452 17.4321 10.5563 20.4537C11.0701 22.035 11.6144 23.6355 12.1415 25.183C12.3402 25.7669 12.5384 26.351 12.7362 26.935C13.1664 28.2457 13.418 29.6051 13.4848 30.979H11.642C11.5393 29.6896 10.6556 28.8153 9.80119 27.9686C9.64267 27.8122 9.48418 27.6552 9.33042 27.4954C5.8017 23.8356 3.86526 19.9159 3.41083 15.5124C3.25424 13.996 3.13834 12.3813 3.34847 10.8482C3.66552 8.53474 5.02721 6.59699 7.51109 4.92382C10.5364 2.88597 13.9008 2.2278 17.509 2.96758C19.4113 3.35736 21.2595 3.77719 22.9599 4.62111C27.3621 6.80648 29.3752 10.6095 28.7809 15.6193C28.3712 19.0737 26.7307 22.1195 23.4614 25.4956C22.6031 26.3825 21.6444 27.4706 21.0423 28.8167C20.7297 29.5158 20.4253 30.3408 20.6941 31.3619ZM20.804 35.6451L20.7033 37.1531H11.5943V35.3775L20.804 35.6451ZM20.522 39.0816L20.4694 40.2403C17.7441 40.3574 14.6023 40.4565 11.5006 40.227C11.4944 40.1859 11.4881 40.1471 11.483 40.1104C11.4606 40.0021 11.4492 39.8922 11.4489 39.7819C11.4611 39.5248 11.4869 39.2665 11.5138 38.9931C11.5201 38.93 11.5264 38.8659 11.5326 38.8012L20.522 39.0816ZM11.4361 32.4811L11.6959 32.4884C14.8301 32.5775 17.7931 32.6619 20.8229 32.9678L20.8669 33.6936C17.7636 33.8602 14.653 33.8531 11.5506 33.6718L11.4361 32.4811ZM13.7814 24.7058C13.6672 24.3542 13.5524 24.0027 13.4437 23.6501C12.8519 21.7398 12.2828 19.8657 11.8256 17.9402C11.4005 16.1516 11.6494 14.2587 12.6062 11.983C12.8174 11.5274 13.1194 11.1168 13.495 10.7748C13.5646 10.6941 13.651 10.6285 13.7484 10.5824C13.8459 10.5362 13.9523 10.5105 14.0607 10.5069C14.2661 10.5161 14.479 10.6471 14.6934 10.896C15.2463 11.5381 15.2581 11.7005 14.8074 12.474C13.8904 14.0482 13.5169 15.5604 13.6658 17.0968C13.7007 17.5801 13.817 18.0544 14.0103 18.5012C14.088 18.7262 14.2279 18.9263 14.4148 19.0797C14.6016 19.233 14.8284 19.3337 15.0702 19.3709C15.3119 19.4081 15.5596 19.3803 15.7862 19.2905C16.0128 19.2007 16.2097 19.0523 16.3554 18.8616C16.682 18.492 16.9381 18.0688 17.1115 17.6121C17.7681 15.9924 17.8947 14.2161 17.474 12.5243C17.3414 11.9701 17.7457 11.5046 18.5838 11.247C18.9241 11.1423 19.1915 11.1422 19.378 11.2458C19.4747 11.3114 19.5563 11.3958 19.6174 11.4937C19.6787 11.5915 19.7181 11.7006 19.7333 11.814C19.9447 12.7163 20.2062 13.8393 20.0743 14.8479C19.8453 16.5923 19.4555 18.3505 19.0781 20.0506C19.0076 20.3704 18.9373 20.69 18.8669 21.0094C18.6407 22.0432 18.3936 23.0915 18.1545 24.1052C17.8338 25.4666 17.5028 26.8744 17.2157 28.2679C17.0944 28.9515 17.0267 29.6428 17.0133 30.3363C17.0003 30.6145 16.987 30.8998 16.9673 31.1921L14.8202 31.064C15.1124 28.8035 14.4364 26.7211 13.7819 24.7058H13.7814ZM15.601 15.9056L15.7254 15.1638C15.7249 15.4159 15.6831 15.6662 15.6016 15.9056H15.601Z" fill="black"/>
</g>
<defs>
<clipPath id="clip0_4_3651">
<rect width="31" height="42" fill="white" transform="translate(0.641235 0.5)"/>
</clipPath>
</defs>
</svg>
