<svg width="48" height="26" viewBox="0 0 48 26" fill="none" xmlns="http://www.w3.org/2000/svg">
<g clip-path="url(#clip0_4_3620)">
<path d="M47.1119 5.80006C47.0665 4.82288 46.7704 3.86716 46.4448 2.89155C46.049 1.70498 45.1741 0.956745 43.9145 0.726584C43.3219 0.60778 42.7217 0.531959 42.1184 0.49973C38.3843 0.365193 34.6463 0.24181 31.0311 0.122279L27.8191 0.0158599C27.8154 0.015506 27.8118 0.015506 27.8081 0.0158599C26.1835 0.0616943 24.5776 0.10453 22.991 0.144432C18.903 0.24913 15.0422 0.349996 11.1174 0.51315C9.32061 0.588009 7.56188 0.884673 5.61417 1.23576C4.00346 1.52595 2.74877 2.50208 1.88483 4.13676C1.20333 5.42612 1.12287 6.82752 1.04506 8.18266L1.0437 8.20672C0.8 12.4322 0.52583 17.2214 0.692071 21.9122C0.756478 23.7343 1.56509 24.8631 3.16395 25.3632C3.91809 25.6003 4.70184 25.7296 5.49204 25.7471C11.7293 25.8483 16.8114 25.9041 21.4857 25.923C21.6638 25.9237 21.8433 25.924 22.0241 25.924C24.1411 25.924 26.4589 25.8743 29.2615 25.7692C31.8637 25.6717 34.5058 25.5084 37.061 25.3504L37.2018 25.3417C37.5241 25.3218 37.8459 25.3052 38.1693 25.2883C39.7026 25.2089 41.2881 25.1267 42.8152 24.6924C42.9216 24.6624 43.0281 24.6327 43.135 24.6031C43.6389 24.4743 44.1345 24.3138 44.6184 24.1225C46.6661 23.2629 47.6722 21.7954 47.6092 19.7601L47.5744 18.6442C47.4447 14.4347 47.3103 10.0803 47.1119 5.80006ZM3.57407 8.35033C3.6068 7.16602 3.67672 5.95416 4.39217 4.88903C4.75384 4.31243 5.32346 3.89784 5.98237 3.73158C6.74829 3.54679 7.53601 3.37997 8.29863 3.21891C8.55313 3.16516 8.80843 3.11103 9.06454 3.05647C8.75399 5.75017 6.54221 7.88722 3.57407 8.35033ZM3.05583 20.7744C3.10701 19.8442 3.09462 18.8932 3.08278 17.9734C3.07808 17.6096 3.07303 17.2442 3.07199 16.8773C3.5862 16.8143 4.00226 16.9952 4.48201 17.2378C6.30978 18.1603 7.75253 19.6723 8.89445 21.8602C9.03371 22.1259 9.1556 22.4116 9.29625 22.7422C9.33942 22.8431 9.38461 22.949 9.433 23.061C9.00095 23.0446 8.58126 23.031 8.17097 23.0178C7.06351 22.9829 6.01757 22.948 4.98061 22.8658C3.70952 22.7639 2.98969 21.9821 3.05583 20.7737V20.7744ZM38.8688 2.72021C38.9692 2.69844 39.0719 2.68888 39.1748 2.69175C40.4629 2.79645 41.7713 2.91214 43.037 3.02435L43.1627 3.03551C43.773 3.08961 44.1319 3.40756 44.2289 3.98008C44.3486 4.68592 44.4459 5.39052 44.549 6.13632C44.5845 6.39318 44.6207 6.65381 44.6578 6.91824C41.7763 6.89259 39.1463 4.98499 38.8688 2.7195V2.72021ZM39.0951 7.70173C40.457 8.65622 42.0392 9.2919 43.9319 9.64508C44.1049 9.67719 44.2769 9.7149 44.4661 9.75695L44.6238 9.79185V13.8163C44.5272 13.8325 44.4306 13.8475 44.3342 13.8627C44.0069 13.9085 43.6823 13.9709 43.3615 14.0498C41.9701 14.4162 40.6936 15.2384 39.5666 16.4927C37.875 18.376 36.8298 20.3359 36.3741 22.48C33.1158 23.1178 16.1641 23.5072 12.3418 23.0323C11.9604 20.6743 10.537 18.9188 9.05077 17.372C7.24528 15.493 5.37673 14.5994 3.18444 14.5709L3.42626 10.6505C5.55204 10.5882 7.59407 9.80598 9.21957 8.43132C10.8628 7.06326 11.5463 5.16559 12.0466 2.74271C20.2773 2.30036 28.6167 2.38693 36.414 2.54973C36.4194 2.6293 36.4239 2.70674 36.4284 2.78178C36.4385 3.02941 36.4617 3.27632 36.4981 3.52147C36.6204 4.35975 36.9141 5.16369 37.3608 5.88288C37.8076 6.60208 38.3976 7.22106 39.094 7.70105L39.0951 7.70173ZM40.2671 22.309C40.1104 22.3318 39.9519 22.3549 39.7929 22.3788C40.5221 18.8663 42.9945 16.3301 44.9125 16.1062V17.1403C44.9125 18.1012 44.9114 19.0422 44.914 19.9834C44.9158 20.6191 44.6249 21.0734 44.0727 21.2972C43.3413 21.5947 42.5898 21.8396 41.8237 22.0301C41.3183 22.1551 40.8071 22.2294 40.2662 22.3083L40.2671 22.309Z" fill="black"/>
<path d="M27.5893 6.94499C25.5617 5.58863 22.1939 5.76276 20.2351 7.32502C18.6856 8.54041 17.6356 10.2839 17.2843 12.2243C16.8202 14.6273 17.785 16.6962 19.9303 17.9002C20.9646 18.4858 22.1297 18.8002 23.3174 18.814C23.3409 18.814 23.3635 18.814 23.387 18.814C27.0078 18.814 29.5204 17.0431 30.279 13.954C30.5886 12.6501 30.4976 11.2827 30.0175 10.0317C29.5374 8.78067 28.6911 7.70462 27.5893 6.94499ZM22.5036 8.68837C22.6335 8.68985 22.7623 8.71342 22.8843 8.75815C22.9057 8.7663 22.9287 8.76966 22.9515 8.76795C24.7697 8.68245 26.003 9.24429 26.8333 10.5303C27.523 11.5988 27.6503 12.8126 27.1815 13.8608C26.7181 14.8985 25.7443 15.6045 24.5095 15.7977C23.3258 15.9829 22.3069 15.863 21.3935 15.4313C20.2039 14.8687 19.736 13.9842 19.9205 12.647C20.0781 11.6124 20.4913 10.6338 21.1225 9.80028C21.5942 9.14574 21.9708 8.68889 22.5036 8.68889V8.68837Z" fill="black"/>
</g>
<defs>
<clipPath id="clip0_4_3620">
<rect width="47" height="26" fill="white" transform="translate(0.641235)"/>
</clipPath>
</defs>
</svg>
