<svg width="43" height="32" viewBox="0 0 43 32" fill="none" xmlns="http://www.w3.org/2000/svg">
<g clip-path="url(#clip0_4_3603)">
<path d="M20.4757 7.71566C21.6695 6.13676 23.2692 5.27063 25.0586 4.73407C27.642 3.95967 30.0891 4.46752 32.3668 5.77191C33.3982 6.38031 34.3498 7.11923 35.1986 7.97107C36.8295 9.57505 37.4078 11.5988 37.1058 13.8913C37.1701 13.9489 37.2248 14.0298 37.2989 14.0599C40.8091 15.4747 42.9567 20.1409 41.3289 24.5556C40.8339 25.8991 40.058 27.084 39.184 28.1931C38.0507 29.6314 36.4579 30.2966 34.7426 30.6164C33.0333 30.9351 31.3023 31.1421 29.5755 31.3533C25.0588 31.9054 20.5146 31.8276 15.9784 31.9222C13.7639 31.9682 11.5539 31.9279 9.39154 31.3585C8.71835 31.1812 8.04821 30.9802 7.39457 30.7408C3.93663 29.4748 2.00825 26.8337 1.14325 23.3303C0.314477 19.9746 0.514041 16.6304 2.14133 13.5785C4.48652 9.18205 8.11321 6.45688 13.0991 5.92343C15.3736 5.68006 17.5423 6.28657 19.6042 7.26819C19.8669 7.39273 20.1218 7.53317 20.4757 7.71566ZM16.9696 29.297C18.132 29.2489 19.2956 29.22 20.4568 29.1493C24.2307 28.9192 28.002 28.642 31.7776 28.4522C33.0552 28.3955 34.3059 28.0587 35.444 27.4649C38.1184 26.0797 39.4085 23.6309 38.9747 20.6001C38.6555 18.3713 37.4471 16.8423 35.2716 16.2682C32.5092 15.5395 29.9585 16.0038 27.7627 17.9439C27.1506 18.485 26.6165 19.1181 26.0453 19.7083C25.8772 19.9117 25.6893 20.0969 25.4842 20.2616C24.7933 20.7271 23.9878 20.4571 23.734 19.6498C23.6438 19.3459 23.6447 19.0216 23.7365 18.7182C24.0861 17.6457 23.9418 16.6182 23.5753 15.5952C23.105 14.2538 22.3782 13.0203 21.4372 11.9658C18.7462 8.97461 15.3957 7.99963 11.5472 8.81381C9.99082 9.14246 8.66209 10.0309 7.41416 11.0236C3.33421 14.2691 2.47943 18.832 3.52348 23.0826C4.17083 25.7189 5.70335 27.6318 8.33677 28.4591C9.14123 28.7094 9.96031 28.9083 10.7891 29.0548C12.8356 29.4205 14.9032 29.3491 16.9696 29.297ZM26.2892 15.8052C28.6614 13.7952 31.3394 13.0487 34.2608 13.2687C34.5142 12.0117 34.2804 10.8502 33.4985 9.95182C30.7949 6.8454 26.901 5.83003 23.0904 8.20823C22.755 8.44192 22.4316 8.69254 22.1211 8.95925C24.1337 10.7816 25.582 13.1602 26.2892 15.805V15.8052Z" fill="black"/>
<path d="M37.554 6.4758C37.3535 6.33465 37.0235 6.22144 36.9312 6.00384C36.8851 5.87068 36.8704 5.72845 36.8885 5.58848C36.9063 5.44849 36.9563 5.31465 37.0344 5.19794C37.7138 4.46325 38.5972 3.95657 39.5668 3.74505C39.7375 3.69574 39.92 3.70788 40.0828 3.77953C40.2457 3.85116 40.3794 3.97782 40.461 4.13813C40.5602 4.30609 40.5974 4.50449 40.5661 4.69777C40.5346 4.89103 40.4369 5.06667 40.29 5.19337C39.5275 5.86693 38.5773 6.14767 37.554 6.4758Z" fill="black"/>
<path d="M40.6688 10.6174C41.0247 10.6485 41.3789 10.6978 41.7298 10.7651C42.2767 10.8974 42.5754 11.2898 42.5392 11.7575C42.5372 11.8695 42.513 11.98 42.4678 12.0821C42.4226 12.1843 42.3575 12.2761 42.2763 12.3519C42.1952 12.4277 42.1 12.4858 41.9961 12.523C41.8922 12.5602 41.7819 12.5756 41.672 12.5681C40.9573 12.5545 40.2461 12.4676 39.5486 12.3087C39.3749 12.2679 39.2233 12.1611 39.1246 12.0102C39.026 11.8593 38.9879 11.6756 39.0182 11.497C39.0291 11.3178 39.0988 11.1477 39.2163 11.0137C39.3338 10.8798 39.4919 10.7898 39.6657 10.7583C40.0032 10.6831 40.3515 10.6598 40.6688 10.6174Z" fill="black"/>
<path d="M34.1334 1.6416C34.067 1.99909 33.9694 2.34976 33.8415 2.68958C33.749 2.92735 33.5728 3.12163 33.3472 3.23452C33.1217 3.34738 32.8629 3.3708 32.6213 3.30021C32.3921 3.23946 32.1921 3.09583 32.0593 2.89616C31.9265 2.6965 31.8697 2.45443 31.8995 2.21526C31.9595 1.68921 32.0812 1.17247 32.2621 0.675893C32.3205 0.472906 32.4509 0.299191 32.6279 0.188394C32.8051 0.0775973 33.0163 0.0376456 33.2207 0.0762315C33.6891 0.130372 33.9323 0.449165 34.0479 0.876062C34.0935 1.12898 34.1221 1.38473 34.1334 1.6416Z" fill="black"/>
<path d="M26.4225 2.27129C26.3919 2.46721 26.3411 2.65938 26.2707 2.84443C25.9476 3.54601 25.1574 3.6376 24.7493 2.98497C24.5361 2.63314 24.4006 2.23828 24.3524 1.82787C24.3042 1.41746 24.3445 1.00129 24.4703 0.608278C24.6351 0.031932 25.362 -0.033283 25.8207 0.457095C26.2622 0.928965 26.3902 1.53148 26.4225 2.27129Z" fill="black"/>
<path d="M18.6655 2.8999C19.3173 2.88589 20.4654 3.60492 20.6735 4.23402C20.7526 4.47307 20.7313 4.86506 20.5848 5.03285C20.4074 5.23592 20.02 5.41349 19.7737 5.36004C19.3923 5.27447 19.0338 5.10539 18.723 4.86477C18.4123 4.62414 18.1567 4.31762 17.9741 3.96645C17.675 3.42798 18.0364 2.91339 18.6655 2.8999Z" fill="black"/>
</g>
<defs>
<clipPath id="clip0_4_3603">
<rect width="42" height="32" fill="white" transform="translate(0.641235)"/>
</clipPath>
</defs>
</svg>
