<svg width="38" height="46" viewBox="0 0 38 46" fill="none" xmlns="http://www.w3.org/2000/svg">
<g clip-path="url(#clip0_4_3635)">
<path d="M14.8423 45.9857C14.5576 45.9326 14.2704 45.8937 13.9818 45.8694C11.8344 45.7896 9.68518 45.7505 7.53952 45.6368C6.30768 45.5716 5.07549 45.4348 3.85518 45.2508C2.55347 45.0546 1.27381 43.4832 1.20342 42.0558C1.13458 40.664 1.07863 39.2704 1.06074 37.8771C0.975264 31.2263 0.898273 24.5756 0.82978 17.9249C0.787962 14.0354 0.773508 10.1455 0.711382 6.25638C0.69314 5.12269 0.616571 3.98488 1.08019 2.92775C1.34183 2.30381 1.69667 1.72393 2.13237 1.20835C2.59047 0.689159 3.27022 0.503783 3.97632 0.484515C5.62359 0.43973 7.274 0.432373 8.91714 0.320932C14.451 -0.0531434 19.9827 0.247528 25.5165 0.283807C26.0695 0.272396 26.619 0.375004 27.1311 0.585378C27.6434 0.795753 28.1077 1.10944 28.4955 1.50721C30.2844 3.22571 32.207 4.80165 34.0637 6.44862C34.7707 7.07561 35.4232 7.76612 36.146 8.37297C36.8435 8.95864 37.0925 9.70369 37.1118 10.5706C37.1665 13.0933 37.213 15.6161 37.2748 18.1389C37.3736 22.1756 37.5209 26.2104 37.5734 30.2485C37.6116 33.1859 37.5303 36.1251 37.5011 39.0633C37.4909 40.0727 37.4601 41.0821 37.4667 42.0914C37.4839 44.4254 35.6509 45.707 33.7178 45.7401C30.1871 45.8009 26.6558 45.8271 23.125 45.8752C22.8362 45.8949 22.549 45.9319 22.2645 45.9859L14.8423 45.9857ZM25.0529 2.49787C24.4971 2.45568 24.0586 2.39988 23.6192 2.39276C19.8812 2.3326 16.1431 2.27769 12.4048 2.22817C10.7575 2.2056 9.1102 2.18881 7.46292 2.17781C6.61106 2.17191 5.75681 2.1458 4.90753 2.19527C3.76879 2.26245 3.36076 2.59962 3.20829 3.73296C3.08219 4.76077 3.02303 5.79593 3.03118 6.83155C3.02705 7.98763 3.14101 9.14362 3.14876 10.3C3.17423 14.0411 3.18569 17.7823 3.18316 21.5238C3.18775 27.8777 3.18932 34.2314 3.18782 40.5852C3.18077 40.9113 3.21207 41.2373 3.2811 41.5562C3.59414 42.8489 4.31827 43.4309 5.48385 43.4582C7.13164 43.496 8.77875 43.626 10.426 43.6203C16.3433 43.5998 22.2604 43.5361 28.1776 43.4948C29.8843 43.483 31.5918 43.5215 33.2977 43.4821C34.5884 43.4521 35.1907 42.8223 35.1766 41.5451C35.147 38.7561 35.0858 35.9674 35.0317 33.1783C35.0155 32.3473 34.9842 31.5167 34.9536 30.6861C34.857 28.0756 34.7066 25.4661 34.6715 22.8548C34.6251 19.4113 34.6695 15.9663 34.6705 12.522C34.6645 12.3293 34.6488 12.1371 34.6235 11.9459C32.6909 11.9459 30.839 11.9594 28.9876 11.9376C28.4292 11.9376 27.8723 11.8757 27.3271 11.7533C26.1786 11.4789 25.8246 11.0397 25.7065 9.84386C25.6046 8.81068 25.5361 7.77407 25.4441 6.73967C25.3209 5.35742 25.1894 3.9749 25.0529 2.49787ZM27.531 3.98011L27.3626 4.03961C27.6486 5.93464 27.9348 7.82954 28.2184 9.70773C29.1745 9.80841 32.7322 9.54213 33.3524 9.31717C31.3966 7.52386 29.4638 5.75189 27.531 3.98011Z" fill="black"/>
<path d="M18.7356 23.9309C15.7333 23.9309 12.7309 23.9296 9.72872 23.9273C9.31676 23.9318 8.90513 23.9037 8.4976 23.8429C7.83556 23.7343 7.54126 23.4276 7.58084 22.9667C7.61698 22.5461 7.91833 22.3343 8.5747 22.3071C9.16274 22.2829 9.75216 22.2968 10.3404 22.2743C14.3393 22.121 18.3372 21.9233 22.3373 21.8198C24.8077 21.7559 27.2816 21.8252 29.7545 21.8512C30.5536 21.8597 30.9998 22.3567 30.7053 22.9339C30.5302 23.2335 30.2452 23.4517 29.912 23.5414C29.114 23.7357 28.2986 23.8483 27.4783 23.878C24.5647 23.9165 21.6503 23.8931 18.7359 23.8931L18.7356 23.9309Z" fill="black"/>
<path d="M7.69325 28.6068C7.53183 27.5729 7.74006 27.2994 8.67573 27.2419C9.99654 27.1607 11.3194 27.0702 12.6418 27.0659C17.9369 27.0484 23.232 27.0503 28.5273 27.0716C29.1145 27.0899 29.7005 27.1385 30.2827 27.2171C30.4775 27.223 30.6625 27.3039 30.7998 27.4435C30.9371 27.5828 31.0161 27.7703 31.0206 27.9666C31.0566 28.3471 30.8174 28.6634 30.3606 28.7959C30.0777 28.8748 29.7852 28.913 29.4916 28.9089C25.668 28.8767 21.8446 28.8295 18.021 28.796C15.2848 28.7721 12.5485 28.7712 9.81223 28.7412C9.11388 28.733 8.41638 28.6542 7.69325 28.6068Z" fill="black"/>
<path d="M8.02869 32.9766C7.81874 32.2557 7.85849 32.0434 8.32624 31.883C8.71508 31.7515 9.123 31.6865 9.53311 31.6907C13.1815 31.7305 16.8311 31.7647 20.4782 31.856C23.3611 31.9282 26.2422 32.0775 29.1239 32.1951C29.3594 32.1965 29.5944 32.2181 29.8263 32.2592C30.0397 32.2894 30.2352 32.3967 30.3762 32.5609C30.5173 32.7253 30.5946 32.9357 30.5937 33.153C30.5928 33.3705 30.514 33.58 30.3717 33.7434C30.2294 33.9065 30.0332 34.0121 29.8195 34.0407C29.529 34.0897 29.234 34.1051 28.9401 34.0865C27.2055 34.0183 25.4703 33.9581 23.7373 33.8598C20.7412 33.6899 17.7473 33.48 14.7512 33.3146C13.165 33.2278 11.5754 33.2063 9.98814 33.1374C9.34503 33.1091 8.70347 33.0332 8.02869 32.9766Z" fill="black"/>
<path d="M27.1621 38.5897C26.577 38.5636 25.9919 38.5485 25.4068 38.5063C25.1461 38.4774 24.8879 38.4298 24.6339 38.3642C24.4857 38.344 24.3512 38.2661 24.2593 38.147C24.1674 38.0279 24.1255 37.8773 24.1426 37.7275C24.1386 37.5617 24.1982 37.4008 24.309 37.2782C24.42 37.1557 24.5735 37.081 24.7375 37.0699C25.2022 37.0109 25.6696 36.9725 26.137 36.9436C27.0146 36.889 27.8911 36.8394 28.769 36.8047C29.0324 36.7977 29.2961 36.8181 29.5554 36.866C30.0373 36.9493 30.2782 37.1958 30.308 37.5928C30.3255 37.7875 30.2725 37.9819 30.1586 38.1402C30.0445 38.2984 29.8776 38.4097 29.6885 38.4529C29.2322 38.5548 28.7683 38.6178 28.3016 38.6414C27.9229 38.6706 27.5414 38.6471 27.1609 38.6471L27.1621 38.5897Z" fill="black"/>
<path d="M9.26535 17.5989C9.94099 17.5989 10.6166 17.596 11.2921 17.6008C11.497 17.6024 11.7369 17.5631 11.8977 17.6548C12.1166 17.7739 12.2907 17.962 12.3933 18.1907C12.4209 18.2608 12.4334 18.3359 12.4302 18.4113C12.427 18.4866 12.408 18.5606 12.3745 18.6281C12.341 18.6956 12.2938 18.7552 12.2359 18.8029C12.178 18.8506 12.1108 18.8857 12.0386 18.9055C11.7651 19.0046 11.4765 19.0548 11.1859 19.0537C9.86508 19.0119 8.5448 18.9445 7.22502 18.8748C7.02107 18.8529 6.81971 18.8107 6.62388 18.7491C6.33614 18.675 6.09936 18.4838 6.20003 18.1886C6.31267 17.9672 6.49397 17.7892 6.71631 17.6814C6.85141 17.6031 7.06048 17.6503 7.23688 17.6498C7.91303 17.6475 8.58903 17.6498 9.26518 17.6498L9.26535 17.5989Z" fill="black"/>
</g>
<defs>
<clipPath id="clip0_4_3635">
<rect width="37" height="46" fill="white" transform="translate(0.641235)"/>
</clipPath>
</defs>
</svg>
