<svg width="42" height="35" viewBox="0 0 42 35" fill="none" xmlns="http://www.w3.org/2000/svg">
<g clip-path="url(#clip0_4_3649)">
<path d="M2.19349 14.0608C1.80374 14.2009 1.42801 14.3778 1.0713 14.589C0.959214 14.645 0.862104 14.7273 0.788145 14.8289C0.714186 14.9305 0.665536 15.0485 0.646283 15.173C0.628399 15.4007 0.74752 15.6285 0.999257 15.8499C1.20864 16.0221 1.43429 16.1733 1.67297 16.3012C1.85604 16.4065 2.04248 16.5061 2.22892 16.6055C2.49584 16.7478 2.77187 16.8943 3.02901 17.0569C6.51603 19.2543 9.68923 21.2026 13.1693 22.7767C13.1619 22.9021 13.1536 23.0272 13.1452 23.1517C13.1216 23.5037 13.0973 23.8675 13.0968 24.2267C13.096 24.769 13.0939 25.3117 13.0904 25.8547C13.0814 27.5765 13.0722 29.3569 13.1297 31.1077C13.1504 31.7389 13.3755 32.1904 13.7634 32.3786C14.1712 32.5759 14.6954 32.461 15.2396 32.0534C15.4358 31.9065 15.6369 31.7413 15.8542 31.5485C16.8075 30.702 17.7595 29.854 18.7206 28.9979L19.5915 28.2219C19.5981 28.2269 19.6045 28.2318 19.6104 28.2371L20.4157 28.9345C21.3326 29.7281 22.2805 30.5486 23.2057 31.3641C23.4693 31.5959 23.7344 31.8264 24.0009 32.0556C24.8135 32.7582 25.6544 33.4847 26.4097 34.2632C26.8099 34.6752 27.1989 34.8689 27.6665 34.8689C27.8681 34.866 28.0684 34.8361 28.2622 34.78C28.9444 34.5931 29.3846 34.1735 29.6895 33.4208C30.8387 30.585 32.0147 27.7044 33.1519 24.919C34.0854 22.6309 35.0183 20.3427 35.9503 18.0541C37.9583 13.1411 39.6906 8.11849 41.1389 3.00983C41.3144 2.41726 41.4378 1.81028 41.5076 1.19594C41.5311 1.0536 41.5223 0.907787 41.4823 0.769274C41.4421 0.630759 41.3716 0.503089 41.276 0.395703C41.1607 0.290931 41.0235 0.213465 40.8746 0.169013C40.7257 0.124561 40.5688 0.114256 40.4155 0.138816C40.2123 0.163364 40.012 0.208878 39.8182 0.274705L39.792 0.282711C39.3564 0.413536 38.9195 0.540597 38.4827 0.667854C37.4678 0.963315 36.4184 1.26883 35.4001 1.61713C28.0453 4.13442 20.5861 6.87493 13.2297 9.7626C11.108 10.5951 8.94769 11.4348 6.85837 12.2464C5.30251 12.8499 3.74755 13.4547 2.19349 14.0608ZM16.1942 21.8212C16.5992 21.4805 16.983 21.1586 17.377 20.856C18.9215 19.6684 20.4675 18.4826 22.0149 17.2991C25.0553 14.9703 28.1995 12.5623 31.2747 10.171C32.215 9.44047 33.1075 8.61916 33.9705 7.82639C34.267 7.55454 34.5631 7.28151 34.8616 7.01221C35.0998 6.79746 35.4982 6.43811 35.2773 5.73607C35.27 5.71314 35.2582 5.69195 35.2425 5.67385C35.2268 5.65574 35.2076 5.64115 35.186 5.63092C35.1644 5.62078 35.141 5.61515 35.117 5.61446C35.0932 5.61374 35.0694 5.61796 35.0473 5.62681C34.955 5.66436 34.8659 5.69751 34.7801 5.72877C34.6012 5.79032 34.4271 5.86476 34.2589 5.95153C28.5519 9.07213 23.5876 13.1642 18.7869 17.1218C17.7011 18.0167 16.6778 18.9398 15.5954 19.9161C15.1358 20.3308 14.6716 20.7472 14.2026 21.1655L3.49485 15.3242C3.55657 15.2859 3.62136 15.2528 3.68855 15.2253C5.41067 14.5723 7.13211 13.917 8.85286 13.2592C13.0664 11.6519 17.4241 9.98976 21.7277 8.40865C25.5605 7.00049 29.4826 5.63632 33.2756 4.31703C34.5368 3.87846 35.7978 3.43902 37.0583 2.99875C37.5468 2.82783 38.0398 2.69411 38.5619 2.55276C38.7002 2.51538 38.8391 2.47751 38.9786 2.43911C36.8771 9.14602 34.1963 15.7245 31.6023 22.09C30.2392 25.4347 28.8308 28.8909 27.514 32.345C23.9345 29.4429 20.4625 26.3749 17.1036 23.4066C16.65 23.0052 16.1954 22.6038 15.7399 22.2021C15.8947 22.0721 16.0457 21.9454 16.1937 21.8212H16.1942ZM18.1837 26.9373L15.1129 29.5575L14.8694 23.8544L18.1837 26.9373Z" fill="black"/>
</g>
<defs>
<clipPath id="clip0_4_3649">
<rect width="41" height="35" fill="white" transform="translate(0.641235)"/>
</clipPath>
</defs>
</svg>
