<svg width="39" height="36" viewBox="0 0 39 36" fill="none" xmlns="http://www.w3.org/2000/svg">
<path d="M1.47106 1.90916C1.60839 1.98559 1.75187 2.05093 1.90003 2.10459C2.22693 2.21905 2.5536 2.33421 2.88004 2.45002C3.79343 2.77267 4.73789 3.10684 5.67574 3.41284C6.89591 3.81104 8.14502 4.18835 9.35303 4.5531L9.83543 4.69878C10.0643 4.75197 10.271 4.87276 10.4274 5.04471C10.5839 5.21664 10.6825 5.43145 10.7101 5.6601C10.8075 6.18516 10.9183 6.71596 11.0259 7.22896C11.1231 7.69305 11.2236 8.17265 11.3133 8.6454C11.4532 9.3835 11.5959 10.1212 11.7413 10.8587C12.1245 12.82 12.5206 14.8481 12.8296 16.8531C13.0031 17.9737 13.1072 19.1254 13.21 20.2395C13.303 21.2569 13.3993 22.309 13.5467 23.3386L13.586 23.6116C13.774 24.9192 13.9519 26.1535 13.9342 27.4494C13.9013 29.8719 14.887 30.8896 17.45 31.0788C19.4054 31.2231 21.3736 31.2732 23.3357 31.2732C25.631 31.2732 27.9167 31.2054 30.1624 31.1375C31.9843 31.0828 33.8699 31.0261 35.723 31.0073H35.7688C36.0067 31.0151 36.2448 30.9927 36.477 30.9402L36.5925 30.9093C36.9456 30.8341 37.285 30.7064 37.5989 30.5308C37.821 30.3985 38.0039 30.2114 38.1292 29.9882C38.2545 29.7649 38.3176 29.5136 38.3124 29.2591C38.3001 29.0149 38.2225 28.7781 38.0875 28.5727C37.9525 28.367 37.7648 28.1996 37.5432 28.0872C37.0704 27.8481 36.5445 27.7277 36.0125 27.7367C34.607 27.7598 33.1802 27.8011 31.7998 27.8408C29.9986 27.8927 28.1361 27.9461 26.3049 27.9595C24.25 27.9748 22.1596 27.9306 20.1377 27.8871C19.3454 27.87 18.5529 27.854 17.7604 27.8394C17.6047 27.8318 17.4498 27.8134 17.2968 27.7844C17.2296 27.7735 17.158 27.7617 17.0797 27.7503L16.4389 24.5161L17.0029 24.4627C17.4958 24.4159 17.949 24.3727 18.4027 24.3345L21.0333 24.1136C24.3572 23.8334 27.7946 23.5437 31.1759 23.2705C32.4838 23.1647 33.3551 22.5505 33.8395 21.3929L33.9905 21.0297C34.2783 20.2922 34.6124 19.5725 34.9901 18.8748C36.0139 17.0807 36.7641 15.1457 37.4889 13.2743L37.676 12.7923C38.0827 11.7466 38.5472 10.3522 38.5302 8.83578C38.5159 7.58733 37.9369 6.98483 36.6526 6.88295C36.4723 6.86885 36.2969 6.86783 36.103 6.86885C34.6592 6.87519 33.2154 6.88015 31.7717 6.88378C28.1388 6.89482 24.3822 6.90638 20.6875 6.95019C19.2371 6.96717 17.7653 7.04811 16.3418 7.12639C15.6538 7.16426 14.9659 7.20219 14.2778 7.2331C14.1284 7.23955 13.9743 7.23779 13.8114 7.23609L13.6944 7.23492C13.6481 7.04519 13.6025 6.85695 13.5577 6.67026C13.4317 6.14775 13.3127 5.65413 13.1811 5.15233C12.8383 3.84309 12.0677 3.03175 10.8259 2.67158C8.95743 2.13005 7.06646 1.54774 5.23864 0.984819C4.35544 0.713121 3.47194 0.442329 2.58817 0.172329C2.40417 0.118138 2.21432 0.0851759 2.0225 0.0741566C1.59964 0.0474963 1.01785 0.0850604 0.850754 0.730682C0.722873 1.22772 0.925357 1.61318 1.47106 1.90916ZM14.0937 8.97142C14.2854 8.96259 14.4754 8.95274 14.6625 8.94323C15.2203 8.91488 15.7473 8.88788 16.2802 8.88618C17.4444 8.88312 18.6281 8.88856 19.7728 8.89382C20.7444 8.89857 21.7161 8.90148 22.6878 8.9026C24.3206 8.90148 25.9534 8.89847 27.5864 8.89348C29.7803 8.88794 31.9746 8.88479 34.169 8.88411C34.6342 8.88411 35.1116 8.9169 35.6172 8.95086C35.8039 8.96377 35.9965 8.9767 36.1974 8.98876C36.1219 9.23974 36.0532 9.48439 35.9859 9.72263C35.8304 10.332 35.6321 10.93 35.3923 11.5125C34.7503 12.9638 34.0514 14.422 33.3759 15.8323C33.122 16.362 32.869 16.892 32.6168 17.4224C32.289 18.1137 31.9584 18.8038 31.6003 19.552L31.1059 20.5846L16.0655 21.9797C15.8408 18.0867 15.2123 13.9415 14.0937 8.97142Z" fill="black"/>
<path d="M32.9671 35.785C33.6301 35.7809 34.2645 35.5203 34.7317 35.0599C34.9334 34.8679 35.0939 34.6384 35.2042 34.3851C35.3144 34.1317 35.372 33.8595 35.3738 33.5843C35.3646 32.4204 34.2249 31.3499 32.9825 31.3382H32.9594C32.348 31.3366 31.7601 31.5693 31.3213 31.9862C30.8826 32.4032 30.6281 32.9716 30.6118 33.5698C30.6059 33.8529 30.6579 34.1343 30.7653 34.3971C30.8726 34.66 31.0329 34.8993 31.2364 35.1003C31.4624 35.3214 31.7311 35.4958 32.027 35.6135C32.3228 35.731 32.6397 35.7894 32.9589 35.7852L32.9671 35.785Z" fill="black"/>
<path d="M18.7606 35.9516H18.7779C19.3628 35.9438 19.9224 35.7173 20.342 35.3182C20.7616 34.9192 21.009 34.3782 21.0336 33.8062C21.0498 32.5698 19.9266 31.3793 18.7227 31.3567C18.1409 31.365 17.5858 31.5968 17.177 32.0022C16.702 32.4411 16.4238 33.0463 16.4033 33.6855C16.408 33.9762 16.4714 34.2632 16.5899 34.53C16.7083 34.7968 16.8795 35.0379 17.0936 35.2396C17.5316 35.6828 18.1307 35.9387 18.7606 35.9516Z" fill="black"/>
</svg>
