<svg width="38" height="36" viewBox="0 0 38 36" fill="none" xmlns="http://www.w3.org/2000/svg">
<g clip-path="url(#clip0_4_3598)">
<path d="M18.4732 32.0023C16.7265 32.0145 14.9868 31.7861 13.3054 31.3239C7.96777 29.8179 4.51114 25.3414 4.50601 19.9194C4.50601 19.6375 4.50601 19.3559 4.50601 19.0047C3.78656 18.931 3.12056 18.8707 2.45799 18.792C2.08113 18.747 1.70586 18.6837 1.33586 18.6025C1.15893 18.5763 0.998641 18.4856 0.887127 18.3487C0.775613 18.2119 0.721057 18.0389 0.734399 17.8644C0.728283 17.7703 0.741352 17.6759 0.77279 17.5866C0.804227 17.4972 0.853421 17.415 0.917571 17.3443C0.981724 17.2738 1.05951 17.2163 1.1465 17.1753C1.23348 17.1343 1.32792 17.1105 1.42435 17.1054C1.86106 17.073 2.29972 17.0736 2.73634 17.1072C3.4044 17.1297 4.0735 17.1655 4.7765 17.1973C4.92244 16.697 5.0406 16.2587 5.17798 15.8263C6.2897 12.3288 8.13421 9.29084 11.0877 6.97615C12.9548 5.51352 15.0524 4.55395 17.4805 4.39436C17.7114 4.37912 17.9394 4.32272 18.2783 4.26746C18.299 3.67346 18.3093 3.08196 18.3437 2.49232C18.3514 2.0932 18.3961 1.69558 18.4771 1.30433C18.6027 0.801933 18.9292 0.575182 19.3377 0.603316C19.5455 0.620627 19.7401 0.710413 19.886 0.856271C20.0318 1.00213 20.1194 1.19437 20.1324 1.39795C20.2009 1.96566 20.2047 2.54105 20.2351 3.11328C20.2523 3.42476 20.2672 3.73639 20.2865 4.12391C21.407 4.24816 22.5021 4.3751 23.5984 4.49032C26.3117 4.77501 28.6821 5.76976 30.6179 7.68722C32.5157 9.56684 33.5613 11.8554 34.0303 14.4248C34.0766 14.6783 34.1199 14.9327 34.1576 15.1878C34.1903 15.4088 34.2131 15.6312 34.2451 15.8911C34.7419 15.8911 35.2066 15.8682 35.6669 15.898C36.0735 15.9106 36.4769 15.9728 36.8678 16.083C37.0684 16.1388 37.2445 16.2585 37.3679 16.423C37.4912 16.5875 37.5549 16.7876 37.5489 16.9915C37.5542 17.1951 37.4891 17.3944 37.3643 17.5573C37.2394 17.7203 37.0618 17.8371 36.8605 17.8891C36.5287 17.9957 36.182 18.0515 35.8327 18.0542C35.3371 18.0592 34.8409 17.9969 34.2924 17.9597C34.1465 18.8386 34.074 19.7214 33.8428 20.5626C33.4952 21.8276 33.1384 23.1067 32.6062 24.3038C31.0037 27.9084 28.0899 30.0622 24.2973 31.1418C23.1777 31.46 22.0231 31.6626 20.7514 31.948C20.7297 32.4336 20.7172 32.9957 20.6745 33.5547C20.6624 33.9236 20.6057 34.2898 20.5056 34.6457C20.4503 34.8572 20.3196 35.0422 20.137 35.1675C19.9542 35.2928 19.7317 35.3502 19.5097 35.3291C19.2867 35.3246 19.0719 35.2459 18.9006 35.106C18.7293 34.9664 18.6119 34.7738 18.5676 34.5599C18.503 34.1944 18.4773 33.8231 18.4907 33.4522C18.4878 33.0802 18.5249 32.7083 18.5357 32.3362C18.5248 32.2233 18.5039 32.1116 18.4732 32.0023ZM18.7685 29.5223C18.8014 28.7396 18.835 27.9458 18.868 27.1518C18.8624 26.8943 18.8744 26.6367 18.9037 26.3807C18.9972 25.8607 19.322 25.5862 19.785 25.5882C20.2572 25.5902 20.5729 25.853 20.668 26.3751C20.728 26.7432 20.7667 27.1142 20.7838 27.4864C20.8234 28.1092 20.8468 28.7332 20.8816 29.4491C23.8569 29.0736 26.5647 28.2601 28.6227 26.1017C30.8026 23.8149 31.5176 20.9605 31.7574 17.8681C31.0551 17.8264 30.4434 17.8135 29.8378 17.7457C29.4326 17.7079 29.0345 17.6173 28.6538 17.4763C28.2964 17.3347 28.1609 16.9972 28.2273 16.6171C28.2456 16.4581 28.3186 16.31 28.4344 16.197C28.5502 16.084 28.7018 16.0128 28.8644 15.9951C29.1833 15.9562 29.5045 15.938 29.826 15.9408C30.4286 15.9331 31.0313 15.9387 31.6356 15.9387C31.544 13.3356 30.2824 10.7656 28.4324 9.17097C26.8758 7.82959 25.0056 7.23859 23.0206 6.89847C22.1403 6.74775 21.2533 6.63372 20.2321 6.48267C20.2321 7.13159 20.2453 7.64117 20.228 8.14959C20.2307 8.54968 20.1934 8.9491 20.1168 9.34212C20.063 9.58263 19.9249 9.7972 19.7264 9.94868C19.5279 10.1002 19.2814 10.179 19.0297 10.1716C18.7779 10.1641 18.5369 10.0708 18.3481 9.90788C18.1594 9.74492 18.0348 9.52258 17.9961 9.27932C17.955 9.02652 17.9483 8.76951 17.9764 8.51502C18.0292 7.75741 18.0984 7.00096 18.1697 6.1412C17.8447 6.15427 17.5206 6.18504 17.1991 6.23332C15.734 6.55009 14.3612 7.18681 13.1836 8.09582C10.203 10.3715 8.44734 13.4138 7.47935 16.9351C7.47498 17.0617 7.49117 17.1882 7.52719 17.3098C8.0851 17.3098 8.61009 17.3024 9.13477 17.3116C9.72026 17.322 10.3071 17.3274 10.8901 17.3736C11.3034 17.4071 11.6477 17.6355 11.6859 18.0493C11.7121 18.3313 11.642 18.7178 11.4545 18.8982C11.1881 19.1154 10.8577 19.2435 10.5115 19.2641C9.95561 19.2926 9.39836 19.2859 8.84336 19.2438C8.29522 19.2229 7.7471 19.1846 7.1539 19.1514C7.00323 20.2771 7.0811 21.421 7.38308 22.5174C8.58935 27.0699 12.9557 29.8683 18.7682 29.5218L18.7685 29.5223Z" fill="black"/>
<path d="M15.9773 17.4463C16.0586 16.97 16.1706 16.4991 16.3125 16.0365C16.8153 14.6854 18.6121 13.9433 19.8532 14.6607C20.6309 15.1261 21.2446 15.8125 21.6124 16.628C22.3147 18.1286 21.6278 19.6788 20.0248 20.2172C18.0838 20.8691 16.0494 19.4609 15.9773 17.4463Z" fill="black"/>
</g>
<defs>
<clipPath id="clip0_4_3598">
<rect width="37" height="35" fill="white" transform="translate(0.641235 0.5)"/>
</clipPath>
</defs>
</svg>
